<svg id="visual" viewBox="0 0 900 600" width="900" height="600" xmlns="http://www.w3.org/2000/svg" xmlns:xlink="http://www.w3.org/1999/xlink" version="1.1"><g><g transform="translate(148 119)"><path d="M91.8 -29.8C104.5 9.2 90.3 57 57.9 80.8C25.5 104.6 -25.1 104.4 -57 80.7C-88.9 57 -102 9.8 -89.4 -29.2C-76.8 -68.1 -38.4 -98.8 0.6 -99C39.5 -99.2 79.1 -68.9 91.8 -29.8Z" stroke="#D9279B" fill="none" stroke-width="20"></path></g><g transform="translate(881 117)"><path d="M63.7 -22.4C72.3 5.6 61.8 38.1 40.2 53.3C18.5 68.6 -14.2 66.6 -37 50.2C-59.9 33.8 -72.8 3 -65 -24.1C-57.1 -51.1 -28.6 -74.3 -0.5 -74.2C27.6 -74 55.2 -50.5 63.7 -22.4Z" stroke="#D9279B" fill="none" stroke-width="20"></path></g><g transform="translate(641 578)"><path d="M63.1 -21.8C72 7 62.9 40.5 40 57.7C17.1 75 -19.4 76 -45 58.3C-70.7 40.6 -85.3 4 -76 -25.3C-66.6 -54.7 -33.3 -77 -3.1 -75.9C27.1 -74.9 54.1 -50.6 63.1 -21.8Z" stroke="#D9279B" fill="none" stroke-width="20"></path></g></g></svg>