<svg id="visual" viewBox="0 0 900 600" width="900" height="600" xmlns="http://www.w3.org/2000/svg" xmlns:xlink="http://www.w3.org/1999/xlink" version="1.1"><rect x="0" y="0" width="900" height="600" fill="#f3a4a4"></rect><path d="M0 440L129 425L257 375L386 402L514 430L643 381L771 369L900 447L900 601L771 601L643 601L514 601L386 601L257 601L129 601L0 601Z" fill="#f5730a"></path><path d="M0 474L129 432L257 421L386 400L514 415L643 467L771 405L900 473L900 601L771 601L643 601L514 601L386 601L257 601L129 601L0 601Z" fill="#da5b09"></path><path d="M0 474L129 488L257 478L386 452L514 480L643 440L771 437L900 497L900 601L771 601L643 601L514 601L386 601L257 601L129 601L0 601Z" fill="#be4407"></path><path d="M0 489L129 502L257 518L386 541L514 500L643 517L771 519L900 497L900 601L771 601L643 601L514 601L386 601L257 601L129 601L0 601Z" fill="#a32d04"></path><path d="M0 552L129 551L257 573L386 540L514 569L643 542L771 544L900 547L900 601L771 601L643 601L514 601L386 601L257 601L129 601L0 601Z" fill="#871400"></path></svg>