<svg id="visual" viewBox="0 0 900 600" width="900" height="600" xmlns="http://www.w3.org/2000/svg" xmlns:xlink="http://www.w3.org/1999/xlink" version="1.1"><g stroke-width="1" stroke-linejoin="bevel"><path d="M478 271L473 204L388 278Z" fill="#cfcfcf" stroke="#cfcfcf"></path><path d="M473 204L381 190L388 278Z" fill="#cbcbcb" stroke="#cbcbcb"></path><path d="M381 190L308 292L388 278Z" fill="#cdcdcd" stroke="#cdcdcd"></path><path d="M404 426L510 399L478 271Z" fill="#cccccc" stroke="#cccccc"></path><path d="M473 204L428 76L381 190Z" fill="#cecece" stroke="#cecece"></path><path d="M381 190L282 162L308 292Z" fill="#cccccc" stroke="#cccccc"></path><path d="M428 76L282 162L381 190Z" fill="#cecece" stroke="#cecece"></path><path d="M308 292L338 382L388 278Z" fill="#cdcdcd" stroke="#cdcdcd"></path><path d="M473 204L489 81L428 76Z" fill="#d1d1d1" stroke="#d1d1d1"></path><path d="M603 93L489 81L473 204Z" fill="#cccccc" stroke="#cccccc"></path><path d="M404 426L478 271L388 278Z" fill="#cbcbcb" stroke="#cbcbcb"></path><path d="M478 271L634 184L473 204Z" fill="#cdcdcd" stroke="#cdcdcd"></path><path d="M338 382L404 426L388 278Z" fill="#cccccc" stroke="#cccccc"></path><path d="M510 399L622 302L478 271Z" fill="#cecece" stroke="#cecece"></path><path d="M267 82L229 188L282 162Z" fill="#cecece" stroke="#cecece"></path><path d="M282 162L229 188L308 292Z" fill="#cbcbcb" stroke="#cbcbcb"></path><path d="M308 292L221 410L338 382Z" fill="#cdcdcd" stroke="#cdcdcd"></path><path d="M622 302L634 184L478 271Z" fill="#d0d0d0" stroke="#d0d0d0"></path><path d="M229 188L218 261L308 292Z" fill="#d5d5d5" stroke="#d5d5d5"></path><path d="M634 184L603 93L473 204Z" fill="#d4d4d4" stroke="#d4d4d4"></path><path d="M428 76L267 82L282 162Z" fill="#cbcbcb" stroke="#cbcbcb"></path><path d="M622 302L662 263L634 184Z" fill="#cdcdcd" stroke="#cdcdcd"></path><path d="M634 184L714 164L603 93Z" fill="#cecece" stroke="#cecece"></path><path d="M510 399L567 431L622 302Z" fill="#cfcfcf" stroke="#cfcfcf"></path><path d="M622 302L698 380L662 263Z" fill="#cbcbcb" stroke="#cbcbcb"></path><path d="M536 516L567 431L510 399Z" fill="#cbcbcb" stroke="#cbcbcb"></path><path d="M489 81L471 0L428 76Z" fill="#d0d0d0" stroke="#d0d0d0"></path><path d="M428 76L372 0L267 82Z" fill="#cfcfcf" stroke="#cfcfcf"></path><path d="M572 0L471 0L489 81Z" fill="#cbcbcb" stroke="#cbcbcb"></path><path d="M471 0L372 0L428 76Z" fill="#d4d4d4" stroke="#d4d4d4"></path><path d="M338 382L290 468L404 426Z" fill="#d4d4d4" stroke="#d4d4d4"></path><path d="M404 426L536 516L510 399Z" fill="#d0d0d0" stroke="#d0d0d0"></path><path d="M221 410L290 468L338 382Z" fill="#d4d4d4" stroke="#d4d4d4"></path><path d="M218 261L221 410L308 292Z" fill="#d0d0d0" stroke="#d0d0d0"></path><path d="M290 468L375 511L404 426Z" fill="#cccccc" stroke="#cccccc"></path><path d="M706 0L572 0L603 93Z" fill="#d3d3d3" stroke="#d3d3d3"></path><path d="M603 93L572 0L489 81Z" fill="#cdcdcd" stroke="#cdcdcd"></path><path d="M372 0L275 0L267 82Z" fill="#d5d5d5" stroke="#d5d5d5"></path><path d="M267 82L162 79L229 188Z" fill="#cbcbcb" stroke="#cbcbcb"></path><path d="M662 263L714 164L634 184Z" fill="#d3d3d3" stroke="#d3d3d3"></path><path d="M375 511L536 516L404 426Z" fill="#d4d4d4" stroke="#d4d4d4"></path><path d="M567 431L698 380L622 302Z" fill="#cbcbcb" stroke="#cbcbcb"></path><path d="M662 263L773 321L714 164Z" fill="#cccccc" stroke="#cccccc"></path><path d="M677 513L698 380L567 431Z" fill="#cbcbcb" stroke="#cbcbcb"></path><path d="M205 0L162 79L267 82Z" fill="#cfcfcf" stroke="#cfcfcf"></path><path d="M229 188L81 218L218 261Z" fill="#cacaca" stroke="#cacaca"></path><path d="M218 261L91 335L221 410Z" fill="#d3d3d3" stroke="#d3d3d3"></path><path d="M527 600L568 528L536 516Z" fill="#cbcbcb" stroke="#cbcbcb"></path><path d="M536 516L568 528L567 431Z" fill="#cbcbcb" stroke="#cbcbcb"></path><path d="M275 0L205 0L267 82Z" fill="#cecece" stroke="#cecece"></path><path d="M134 0L118 115L162 79Z" fill="#cfcfcf" stroke="#cfcfcf"></path><path d="M162 79L118 115L229 188Z" fill="#d5d5d5" stroke="#d5d5d5"></path><path d="M714 164L735 91L603 93Z" fill="#cecece" stroke="#cecece"></path><path d="M821 171L735 91L714 164Z" fill="#cecece" stroke="#cecece"></path><path d="M118 115L81 218L229 188Z" fill="#d4d4d4" stroke="#d4d4d4"></path><path d="M803 392L773 321L698 380Z" fill="#cccccc" stroke="#cccccc"></path><path d="M698 380L773 321L662 263Z" fill="#cdcdcd" stroke="#cdcdcd"></path><path d="M81 218L91 335L218 261Z" fill="#d5d5d5" stroke="#d5d5d5"></path><path d="M221 410L209 520L290 468Z" fill="#d5d5d5" stroke="#d5d5d5"></path><path d="M290 468L304 600L375 511Z" fill="#cdcdcd" stroke="#cdcdcd"></path><path d="M375 511L427 600L536 516Z" fill="#cbcbcb" stroke="#cbcbcb"></path><path d="M129 472L209 520L221 410Z" fill="#cdcdcd" stroke="#cdcdcd"></path><path d="M304 600L427 600L375 511Z" fill="#cacaca" stroke="#cacaca"></path><path d="M91 335L113 417L221 410Z" fill="#cbcbcb" stroke="#cbcbcb"></path><path d="M735 91L706 0L603 93Z" fill="#cecece" stroke="#cecece"></path><path d="M603 600L677 513L568 528Z" fill="#cfcfcf" stroke="#cfcfcf"></path><path d="M568 528L677 513L567 431Z" fill="#cbcbcb" stroke="#cbcbcb"></path><path d="M427 600L527 600L536 516Z" fill="#cccccc" stroke="#cccccc"></path><path d="M113 417L129 472L221 410Z" fill="#cccccc" stroke="#cccccc"></path><path d="M164 600L304 600L209 520Z" fill="#d0d0d0" stroke="#d0d0d0"></path><path d="M209 520L304 600L290 468Z" fill="#d4d4d4" stroke="#d4d4d4"></path><path d="M205 0L134 0L162 79Z" fill="#cfcfcf" stroke="#cfcfcf"></path><path d="M0 184L0 263L81 218Z" fill="#d3d3d3" stroke="#d3d3d3"></path><path d="M773 321L821 171L714 164Z" fill="#cecece" stroke="#cecece"></path><path d="M735 91L796 65L706 0Z" fill="#cccccc" stroke="#cccccc"></path><path d="M527 600L603 600L568 528Z" fill="#cccccc" stroke="#cccccc"></path><path d="M832 473L803 392L677 513Z" fill="#cdcdcd" stroke="#cdcdcd"></path><path d="M677 513L803 392L698 380Z" fill="#d4d4d4" stroke="#d4d4d4"></path><path d="M773 321L900 210L821 171Z" fill="#cbcbcb" stroke="#cbcbcb"></path><path d="M821 171L796 65L735 91Z" fill="#cfcfcf" stroke="#cfcfcf"></path><path d="M603 600L660 600L677 513Z" fill="#cecece" stroke="#cecece"></path><path d="M113 417L0 524L129 472Z" fill="#cbcbcb" stroke="#cbcbcb"></path><path d="M91 335L0 404L113 417Z" fill="#d4d4d4" stroke="#d4d4d4"></path><path d="M81 218L0 263L91 335Z" fill="#cfcfcf" stroke="#cfcfcf"></path><path d="M0 184L81 218L118 115Z" fill="#d4d4d4" stroke="#d4d4d4"></path><path d="M0 88L0 184L118 115Z" fill="#cccccc" stroke="#cccccc"></path><path d="M129 472L164 600L209 520Z" fill="#cccccc" stroke="#cccccc"></path><path d="M107 600L164 600L129 472Z" fill="#cacaca" stroke="#cacaca"></path><path d="M134 0L0 88L118 115Z" fill="#d5d5d5" stroke="#d5d5d5"></path><path d="M0 263L0 404L91 335Z" fill="#d3d3d3" stroke="#d3d3d3"></path><path d="M900 90L823 0L796 65Z" fill="#d4d4d4" stroke="#d4d4d4"></path><path d="M796 65L823 0L706 0Z" fill="#d3d3d3" stroke="#d3d3d3"></path><path d="M806 600L832 473L677 513Z" fill="#cfcfcf" stroke="#cfcfcf"></path><path d="M900 317L900 210L773 321Z" fill="#cdcdcd" stroke="#cdcdcd"></path><path d="M821 171L900 90L796 65Z" fill="#d5d5d5" stroke="#d5d5d5"></path><path d="M900 317L773 321L803 392Z" fill="#cfcfcf" stroke="#cfcfcf"></path><path d="M900 438L900 317L803 392Z" fill="#d4d4d4" stroke="#d4d4d4"></path><path d="M0 524L107 600L129 472Z" fill="#d4d4d4" stroke="#d4d4d4"></path><path d="M134 0L0 0L0 88Z" fill="#d1d1d1" stroke="#d1d1d1"></path><path d="M900 210L900 90L821 171Z" fill="#cccccc" stroke="#cccccc"></path><path d="M900 523L900 438L832 473Z" fill="#d0d0d0" stroke="#d0d0d0"></path><path d="M832 473L900 438L803 392Z" fill="#d4d4d4" stroke="#d4d4d4"></path><path d="M0 404L0 524L113 417Z" fill="#d5d5d5" stroke="#d5d5d5"></path><path d="M660 600L806 600L677 513Z" fill="#cfcfcf" stroke="#cfcfcf"></path><path d="M900 90L900 0L823 0Z" fill="#d1d1d1" stroke="#d1d1d1"></path><path d="M806 600L900 523L832 473Z" fill="#cccccc" stroke="#cccccc"></path><path d="M0 524L0 600L107 600Z" fill="#cfcfcf" stroke="#cfcfcf"></path><path d="M806 600L900 600L900 523Z" fill="#cbcbcb" stroke="#cbcbcb"></path></g></svg>